<svg width="80" height="80" viewBox="0 0 80 80" fill="none" xmlns="http://www.w3.org/2000/svg">
<g clip-path="url(#clip0_2165_268)">
<path d="M1.46165 30.9813C2.29034 30.9421 3.43076 30.9747 4.28744 30.9748L9.76736 30.9749L14.5046 30.9728C15.2653 30.9726 16.3049 30.9396 17.0331 30.9873C17.2183 30.999 17.3974 31.0575 17.5538 31.1575C17.8127 31.3223 17.9951 31.5837 18.0606 31.8837C18.1056 32.0946 18.0917 33.0409 18.0918 33.313L18.0921 36.2788L18.0914 42.6159C18.0911 43.7054 18.0993 44.7956 18.0803 45.8848C18.0691 46.5242 17.6841 46.8976 17.0799 47.0278C16.1389 47.0609 15.0073 47.033 14.0528 47.033L8.23056 47.0334L3.83837 47.0346C3.07191 47.0347 2.29129 47.0427 1.52536 47.0233C1.32172 47.0182 1.17731 46.9629 1.00832 46.8688C0.804682 46.7555 0.510069 46.404 0.482627 46.1692C0.425022 45.6763 0.444698 45.0439 0.444459 44.5413L0.443858 41.2992L0.445147 35.2038C0.445412 34.236 0.446776 33.2674 0.44778 32.2996C0.44853 31.5778 0.727584 31.1353 1.46165 30.9813Z" fill="#D9D9D9"/>
<path d="M8.77899 32.3505C9.91005 32.2137 11.0491 32.5324 11.9452 33.2364C14.1289 34.9449 13.6533 37.3952 13.0953 39.739C12.8991 40.5631 13.0645 41.4472 14.0877 41.3893C14.5222 41.3647 15.2266 40.6197 14.7283 40.2591C14.3082 40.3295 14.4203 41.0121 13.9753 40.9727C13.5947 40.9391 13.3944 40.6796 13.4388 40.2908C13.5631 39.2005 15.0259 38.8764 15.6863 39.7072C15.979 40.0752 15.9655 40.6253 15.9152 41.0737C15.814 41.9599 15.3675 42.7705 14.6727 43.3293C14.0443 43.8262 13.1757 44.0724 12.381 43.9761C11.64 43.8865 10.9668 43.5007 10.5145 42.9067C10.0583 42.3156 9.76591 41.4464 9.8118 40.6942C9.83009 40.3951 10.094 40.1196 10.4144 40.1854C11.0311 40.312 10.7976 40.9665 10.9159 41.3913C11.3716 43.0275 12.8096 43.3817 14.1434 42.4335C13.8471 42.4342 13.3621 42.394 13.1086 42.2416C10.5728 40.7176 13.2457 37.9424 12.3372 35.4673C12.0347 34.6643 11.4281 34.0129 10.649 33.6543C9.86223 33.2868 8.9597 33.2564 8.14997 33.5701C7.21899 33.9206 6.66329 34.5555 6.26298 35.4353C5.54782 37.5976 7.08458 39.813 6.42649 41.2719C6.15598 41.8715 5.67137 42.1708 5.0811 42.3947C6.46157 42.6287 7.41259 41.933 7.62407 40.5821C7.66645 40.2968 8.05946 40.0521 8.30598 40.1916C8.72274 40.4274 8.60696 41.4022 8.66169 41.8266C8.70153 42.1398 8.7813 42.4466 8.89911 42.7395C9.38778 43.9392 10.5216 44.5878 11.7908 44.5915C12.1836 44.6024 12.8092 44.3201 12.974 44.8695C13.133 45.4394 12.5904 45.5964 12.1617 45.6229C9.99391 45.7565 8.40555 44.6572 7.75563 42.6275C7.43282 42.8973 7.20598 43.0492 6.82184 43.2292C5.33282 43.9268 3.50132 43.1668 2.85039 41.6794C2.64595 41.2122 2.52282 40.5292 2.72256 40.0309C2.85083 39.7109 3.10218 39.4558 3.42016 39.3231C3.7316 39.1908 4.08298 39.1885 4.3961 39.3169C4.83794 39.4998 5.35118 40.1971 5.11372 40.5983C4.53673 41.5732 4.15122 40.3769 3.93345 40.2772C3.78835 40.2847 3.84107 40.2658 3.72284 40.3625C3.33716 41.1058 4.94993 41.876 5.40212 40.9796C5.78192 40.2267 5.23575 38.6187 5.08544 37.7694C4.61548 35.114 6.04841 32.7684 8.77899 32.3505Z" fill="#080F2D"/>
<path d="M10.1808 37.3231C10.357 37.2502 10.559 37.2795 10.7072 37.3997C10.8553 37.5199 10.9259 37.7115 10.8911 37.8991C10.8562 38.0868 10.7216 38.2402 10.5402 38.2992C10.2745 38.3854 9.98813 38.2463 9.89157 37.984C9.795 37.7217 9.9227 37.43 10.1808 37.3231Z" fill="#080F2D"/>
<path d="M7.83961 37.3247C8.01262 37.2529 8.2109 37.28 8.35836 37.3955C8.50578 37.5111 8.57953 37.6972 8.55129 37.8825C8.52305 38.0678 8.39715 38.2235 8.222 38.2898C7.957 38.3901 7.66059 38.2591 7.55618 37.9955C7.45176 37.732 7.57797 37.4334 7.83961 37.3247Z" fill="#080F2D"/>
<path d="M24.1168 36.8929C27.8158 36.6618 28.0534 41.9096 24.4011 42.4988C20.4196 42.6638 20.5131 37.3085 24.1168 36.8929ZM24.5676 41.9092C25.0147 41.8064 25.5011 41.591 25.7058 41.1806C26.4416 39.7048 26.1242 37.3326 23.9489 37.4555C23.5086 37.5333 23.0362 37.7204 22.8103 38.1066C21.9641 39.5527 22.2774 42.1967 24.5676 41.9092Z" fill="#D9D9D9"/>
<path d="M49.2339 37.4053C50.2962 37.3003 49.9739 38.1192 49.4354 38.5797C49.8072 39.6409 49.2865 40.4737 48.1639 40.725C47.9009 40.7839 47.4654 40.7863 47.2558 40.9181C47.1912 41.0328 47.2028 40.9837 47.2184 41.1196C47.5947 41.6719 49.8736 40.9996 49.9454 42.3764C50.0038 43.493 48.8616 43.9083 47.9299 44.0248C47.8372 44.0326 47.7435 44.0357 47.6504 44.0339C46.971 44.0176 45.8605 43.7898 45.8712 42.9055C45.877 42.4271 46.1288 42.2155 46.498 41.9517C46.7597 41.7648 46.461 41.5798 46.5212 41.3042C46.5564 40.9877 46.6745 40.8903 46.9045 40.6847C46.835 40.6482 46.7663 40.6102 46.699 40.5706C46.3821 40.3845 46.1409 40.0884 46.0548 39.7371C45.9692 39.3753 46.0361 38.9953 46.2407 38.6813C46.8488 37.7368 48.1894 37.6538 49.1144 38.2097C49.1701 37.8719 49.015 37.6222 49.2339 37.4053ZM48.0971 40.2414C49.2165 39.8581 48.8768 38.3089 47.575 38.3581C46.4324 38.6414 46.6763 40.4184 48.0971 40.2414ZM48.6793 43.3168C48.8821 43.2291 49.1086 43.1292 49.1866 42.9167C49.5254 41.9938 48.2232 42.1079 47.6646 42.0899C47.4663 42.0836 47.3205 42.0732 47.1368 42.0433C46.2002 42.831 46.8372 43.3868 47.8265 43.4257C48.1149 43.4355 48.4033 43.3987 48.6793 43.3168Z" fill="#D9D9D9"/>
<path d="M61.1045 38.4202C61.1499 38.3859 61.1962 38.3524 61.2434 38.3198C63.0749 37.0524 64.6968 38.9497 64.0825 40.6687C63.6209 41.9599 62.5811 42.4273 61.1925 42.2118L61.1357 42.2167C61.0509 42.4042 61.1426 42.964 61.1293 43.181C61.0953 43.7294 61.822 43.2856 61.8486 43.7338C61.6588 43.9956 60.5012 44.3128 60.3073 43.5936C60.107 42.851 60.4627 39.1586 60.1533 38.7175C59.9946 38.6344 59.9295 38.6782 59.7145 38.6967L59.6352 38.6229C59.5628 38.2721 60.1308 38.0431 60.421 37.946C60.9193 37.8959 60.9904 38.0049 61.1045 38.4202ZM61.1105 41.4494C61.6097 41.7232 61.8 41.7503 62.3725 41.6716C63.8382 41.0254 63.6094 38.5515 62.0567 38.591C61.5905 38.6588 61.4965 38.7164 61.1164 38.978C61.1077 39.8018 61.1059 40.6256 61.1105 41.4494Z" fill="#D9D9D9"/>
<path d="M76.9909 36.8973C77.4289 36.8526 77.9763 36.9368 78.3757 37.115C78.9609 37.3777 79.4161 37.8629 79.6395 38.4622C79.9288 39.222 79.88 40.3089 79.528 41.0359C79.0162 42.093 78.2388 42.4885 77.2152 42.8623C77.7661 43.0802 78.5289 43.3864 79.1329 43.1743C79.2888 43.1197 79.6535 42.8934 79.7865 42.868C79.9208 42.9418 79.9489 42.9547 80.0095 43.0914C80.0416 43.4119 79.6448 43.7065 79.3941 43.8399C78.2691 44.438 77.3978 43.4822 76.3482 43.3097C75.944 43.2432 75.7504 43.742 75.3474 43.4951C75.0103 42.8154 76.7288 42.6073 77.0914 42.3869C77.2384 42.2975 77.5115 42.1813 77.6848 42.0814C78.8489 41.3631 79.0337 40.2925 78.8226 38.9899C78.5667 37.413 76.6814 36.8312 75.7276 38.1744C75.2948 38.7841 75.2996 39.9063 75.4418 40.6304C75.6016 41.4454 75.9725 41.479 76.5923 41.8633C76.6511 41.9987 76.6494 41.9452 76.6085 42.0773C76.2649 42.3134 75.5388 42.0135 75.2403 41.7897C74.0872 40.9246 74.2382 39.0188 75.0345 37.9705C75.5243 37.3255 76.203 36.9994 76.9909 36.8973Z" fill="#D9D9D9"/>
<path d="M43.0983 37.9252C45.9465 37.5929 46.1204 41.8594 43.5413 42.4856C41.4092 42.7209 40.8071 40.4507 41.6552 38.9029C41.9675 38.3336 42.4942 38.0759 43.0983 37.9252ZM43.6592 41.8751C44.9991 41.3129 44.7696 38.3835 43.0214 38.5073C42.6795 38.6414 42.4036 38.8369 42.2811 39.1931C41.906 40.2859 42.2065 41.9565 43.6592 41.8751Z" fill="#D9D9D9"/>
<path d="M36.4253 35.8657C36.9665 35.8344 37.0293 36.306 37.0282 36.7854C37.0267 37.4035 37.0176 38.0224 37.0146 38.6407C38.1482 37.6966 39.7415 37.4154 39.6586 39.4808C39.6456 40.1139 39.6468 40.8141 39.635 41.4393C39.6176 42.3676 40.179 41.7844 40.2657 42.3836C40.2513 42.4097 40.217 42.4842 40.1998 42.4846C39.8829 42.4921 38.7364 42.542 38.5085 42.4014C38.4124 42.2539 38.4363 42.3188 38.4311 42.1196C38.5227 41.9921 38.5694 42.0711 38.7808 41.9892C38.9396 41.8054 38.8729 39.7577 38.8712 39.4103C38.856 38.1103 37.5584 38.7669 37.0156 39.2311C37.0087 40.0222 36.984 40.914 37.0222 41.7055C37.04 42.0739 37.3535 41.9866 37.5708 42.1558C37.6344 42.3065 37.6487 42.3785 37.5389 42.4967C37.0433 42.4823 36.4843 42.5424 35.9939 42.4484C35.8474 42.4203 35.8245 42.3479 35.7856 42.2092C35.896 42.0057 36.257 41.9892 36.2478 41.6719C36.2003 40.0494 36.2694 38.4124 36.2229 36.7941C36.2141 36.4895 35.8439 36.5786 35.6844 36.4718C35.6213 36.1464 36.2034 35.9309 36.4253 35.8657Z" fill="#D9D9D9"/>
<path d="M66.0943 35.8643C66.5508 35.8596 66.7199 36.1195 66.7296 36.5341C66.7458 37.2251 66.7259 37.9607 66.7227 38.6508C67.4361 38.06 69.0121 37.4369 69.5195 38.4963C69.8813 39.2518 69.4737 41.0087 69.7038 41.8555C69.7731 42.1116 70.4944 41.9998 70.2953 42.4627C70.1433 42.5327 68.6212 42.5082 68.4022 42.4071C68.2802 42.2712 68.3121 42.3342 68.2895 42.1408C68.4129 41.9779 68.4563 42.0941 68.7012 41.9619C68.861 41.7708 68.7922 39.639 68.7899 39.2417C68.5792 38.156 67.2577 38.7971 66.7227 39.2464C66.7199 39.8425 66.6464 41.2738 66.7864 41.8684C66.8252 42.0342 67.2171 42.0062 67.3949 42.2378C67.3991 42.3539 67.4093 42.3979 67.34 42.4898C66.8067 42.4921 66.2186 42.5224 65.6881 42.4632C65.5014 42.4425 65.4372 42.3865 65.3637 42.2296C65.5102 41.9451 65.9644 42.0396 65.8794 41.4555C65.7736 40.7311 66.0189 37.0015 65.7717 36.6102C65.653 36.5196 65.4612 36.5391 65.2783 36.4999L65.2344 36.4231C65.287 36.1108 65.8198 35.9256 66.0943 35.8643Z" fill="#D9D9D9"/>
<path d="M56.3806 37.9396C59.7742 37.5351 57.8995 40.9923 58.5557 41.7738C58.6996 41.8676 58.8786 41.8167 59.0754 41.8233L59.1194 41.8932C59.031 42.4251 58.3935 42.5812 57.951 42.4161C57.7676 42.3475 57.6992 42.1522 57.637 41.984C56.9502 42.5149 56.3269 42.689 55.5263 42.2651C55.5032 42.2461 55.481 42.226 55.4597 42.2048C54.9861 41.7366 54.8675 40.9609 55.3598 40.4548C55.8951 39.9046 56.9177 39.9293 57.6352 39.9286C57.6583 39.1061 57.7591 38.2684 56.5965 38.4859C55.8795 38.62 56.206 39.1014 55.9226 39.3239C55.2509 39.4748 54.6818 38.2948 56.3806 37.9396ZM56.5468 41.8317C57.0203 41.814 57.2314 41.7536 57.629 41.4807L57.6338 40.4206C57.5197 40.4258 57.1203 40.4356 57.0297 40.4516C56.6285 40.4956 56.2798 40.5238 56.0097 40.8682C55.6183 41.3665 56.0692 41.7421 56.5468 41.8317Z" fill="#D9D9D9"/>
<path d="M33.008 36.8952C33.1362 36.8865 33.2412 36.862 33.3418 36.9515C33.5305 37.2037 33.432 37.7853 33.4131 38.1423C33.7167 38.1509 34.239 38.1094 34.5151 38.1592C34.5718 38.2309 34.5823 38.3466 34.5749 38.4387C34.5339 38.9518 33.6777 38.7688 33.41 38.7383C33.4089 39.2596 33.3075 41.4942 33.5593 41.7639C33.7909 41.9106 34.1613 41.648 34.5028 41.6087C34.6281 41.6771 34.5934 41.6622 34.6611 41.8309C34.619 41.9089 34.5692 41.9796 34.5132 42.0456C34.2707 42.3315 33.9141 42.4934 33.5657 42.5018C33.3325 42.5075 33.0376 42.4822 32.8628 42.2866C32.5432 41.9291 32.6641 39.3725 32.6657 38.7232C32.4715 38.7259 32.1876 38.7421 32.1133 38.4977C32.201 38.2113 32.4548 38.1628 32.6311 38.033C32.8649 37.8609 32.9653 37.199 33.008 36.8952Z" fill="#D9D9D9"/>
<path d="M70.9027 36.8855C71.5082 36.9548 72.8605 36.8243 73.2662 37.0053C73.3805 37.138 73.373 37.0923 73.3876 37.2379C73.1765 37.4835 72.5218 37.1675 72.588 38.0234C72.6843 39.2759 72.468 40.622 72.6682 41.8509C72.6966 42.0262 73.1751 42.0206 73.3352 42.1771C73.4084 42.3015 73.3843 42.3647 73.3569 42.5025C72.6673 42.432 71.8171 42.5425 71.1251 42.4416C70.9466 42.4156 70.9178 42.3396 70.8398 42.2202C70.8805 41.8496 71.6688 42.2717 71.6688 41.5497C71.6688 40.4354 71.6693 39.305 71.6811 38.1907C71.6938 37.0311 71.3202 37.5619 70.9542 37.2265C70.8672 37.1045 70.8885 37.0296 70.9027 36.8855Z" fill="#D9D9D9"/>
<path d="M29.3414 38.6138C31.2755 36.6567 31.4495 39.3693 30.6428 39.5046C30.3793 39.3315 30.5701 37.942 29.3403 39.1589L29.3378 41.1635C29.3343 41.3993 29.313 41.6887 29.3938 41.8985C29.5545 42.1175 29.8542 41.9748 29.9883 42.2841C29.9725 42.3904 29.9729 42.43 29.9035 42.5009C29.5178 42.4821 28.5383 42.5579 28.2667 42.3936C28.2174 42.3083 28.1931 42.2507 28.2076 42.1419C28.2342 41.9437 28.413 42.0832 28.5187 41.9898C28.577 41.9382 28.5986 41.7981 28.6079 41.7143C28.6357 41.4618 28.6371 38.8306 28.5437 38.7726C28.3653 38.6619 28.1862 38.7652 28.0391 38.5398L28.059 38.4402C28.2094 38.218 28.5105 38.0269 28.7357 37.9295C29.2574 37.8712 29.2752 38.0613 29.3414 38.6138Z" fill="#D9D9D9"/>
<path d="M52.4533 38.6094C52.8093 38.3037 53.2988 37.975 53.7732 37.9179C54.6458 37.813 54.7054 38.846 54.2742 39.3427C54.1829 39.4477 54.1411 39.4846 54.0058 39.4971C53.6842 39.2903 53.8764 37.9286 52.4529 39.1549L52.4515 41.0309C52.4382 42.552 52.7368 41.6838 53.1924 42.2313C53.2048 42.3578 53.208 42.3768 53.1433 42.4852C52.7258 42.5022 51.511 42.5413 51.1972 42.3885C51.0922 42.2523 51.1169 42.3143 51.1206 42.1195C51.2816 41.9134 51.2972 42.1262 51.5312 41.9485C51.6918 41.4677 51.584 39.6843 51.6028 39.0821C51.6207 38.5243 51.1734 38.8048 50.9733 38.6214C50.9119 38.2452 51.483 38.0144 51.767 37.9125C52.3707 37.8706 52.3964 38.0559 52.4533 38.6094Z" fill="#D9D9D9"/>
</g>
<defs>
<clipPath id="clip0_2165_268">
<rect width="80" height="24" fill="white" transform="translate(0 28)"/>
</clipPath>
</defs>
</svg>
